<svg width="24" height="24" viewBox="0 0 24 24" fill="none" xmlns="http://www.w3.org/2000/svg">
<mask id="mask0_4746_3537" style="mask-type:alpha" maskUnits="userSpaceOnUse" x="0" y="0" width="24" height="24">
<rect width="24" height="24" fill="#D9D9D9"/>
</mask>
<g mask="url(#mask0_4746_3537)">
<path d="M4.5 19.3078V17.0845C4.5 16.5948 4.633 16.1413 4.899 15.724C5.165 15.3067 5.5205 14.9858 5.9655 14.7615C6.95383 14.277 7.95092 13.9136 8.95675 13.6713C9.96258 13.4289 10.977 13.3078 12 13.3078C12.5333 13.3078 13.0632 13.3404 13.5895 13.4058C14.1157 13.4711 14.6435 13.5711 15.173 13.7058L13.9212 14.973C13.5927 14.9258 13.2725 14.8865 12.9605 14.855C12.6485 14.8235 12.3283 14.8078 12 14.8078C11.0883 14.8078 10.1848 14.917 9.28925 15.1355C8.39392 15.3542 7.51542 15.6757 6.65375 16.1C6.45258 16.209 6.29333 16.3497 6.176 16.522C6.05867 16.6945 6 16.882 6 17.0845V17.8078H11.923V19.3078H4.5ZM14.1155 20.5V17.8578L19.5443 12.4538C19.6686 12.3294 19.8028 12.2419 19.947 12.1913C20.0912 12.1408 20.2353 12.1155 20.3795 12.1155C20.5367 12.1155 20.6888 12.1449 20.8358 12.2038C20.9827 12.2628 21.1163 12.3513 21.2365 12.4693L22.1615 13.4038C22.2692 13.5283 22.3525 13.6629 22.4115 13.8078C22.4705 13.9526 22.5 14.0974 22.5 14.2423C22.5 14.3871 22.4731 14.5345 22.4193 14.6845C22.3654 14.8345 22.2795 14.9717 22.1615 15.096L16.7578 20.5H14.1155ZM15.3077 19.3078H16.2578L19.5038 16.046L19.0443 15.571L18.5788 15.102L15.3077 18.3578V19.3078ZM19.0443 15.571L18.5788 15.102L19.5038 16.046L19.0443 15.571ZM12 11.6923C11.0375 11.6923 10.2136 11.3496 9.52825 10.6643C8.84275 9.97876 8.5 9.15476 8.5 8.19226C8.5 7.22976 8.84275 6.40584 9.52825 5.72051C10.2136 5.03501 11.0375 4.69226 12 4.69226C12.9625 4.69226 13.7864 5.03501 14.4718 5.72051C15.1573 6.40584 15.5 7.22976 15.5 8.19226C15.5 9.15476 15.1573 9.97876 14.4718 10.6643C13.7864 11.3496 12.9625 11.6923 12 11.6923ZM12 10.1923C12.55 10.1923 13.0208 9.99643 13.4125 9.60476C13.8042 9.21309 14 8.74226 14 8.19226C14 7.64226 13.8042 7.17143 13.4125 6.77976C13.0208 6.38809 12.55 6.19226 12 6.19226C11.45 6.19226 10.9792 6.38809 10.5875 6.77976C10.1958 7.17143 10 7.64226 10 8.19226C10 8.74226 10.1958 9.21309 10.5875 9.60476C10.9792 9.99643 11.45 10.1923 12 10.1923Z" fill="#1C1B1F"/>
</g>
</svg>
