<svg width="33" height="41" viewBox="0 0 33 41" fill="none" xmlns="http://www.w3.org/2000/svg">
<rect x="0.5" y="10.3452" width="30" height="30" rx="15" fill="#2864D2"/>
<rect x="0.5" y="10.3452" width="30" height="30" rx="15" stroke="#FFD700"/>
<path d="M18.561 18.5747C18.3811 18.5751 18.2356 18.7212 18.236 18.901L18.2463 23.7298C18.2468 23.9917 17.9498 24.152 17.7156 24.0347C17.4385 23.896 17.1433 23.7831 16.8321 23.7004C15.7433 23.4111 14.6415 23.5353 13.6943 23.9767C13.4994 24.0675 13.2614 23.9696 13.2062 23.7619L11.5418 17.5046C11.4772 17.2618 11.1737 17.1805 10.9964 17.3585L4.96562 23.4144C4.78833 23.5924 4.8709 23.8956 5.11396 23.9592L11.3103 25.5795C11.5236 25.6353 11.621 25.883 11.5213 26.0797C11.3785 26.3617 11.2624 26.6626 11.178 26.9804C10.5225 29.4473 11.9911 31.979 14.458 32.6345C16.9248 33.2898 19.4556 31.821 20.1111 29.3542C20.3883 28.311 20.2865 27.2561 19.8895 26.3365C19.7899 26.1058 19.9491 25.8306 20.2004 25.83L25.1839 25.82C25.3638 25.8196 25.5093 25.6735 25.5089 25.4937L25.4951 18.8858C25.4947 18.706 25.3486 18.5605 25.1688 18.5609L18.561 18.5747Z" fill="#FFD700"/>
<path d="M21.3744 4.59196C21.8574 4.12387 22.6659 4.35409 22.8298 5.00635L24.7661 12.7112C24.93 13.3634 24.3263 13.9485 23.6795 13.7643L16.0388 11.5888C15.392 11.4046 15.1871 10.5893 15.67 10.1212L21.3744 4.59196Z" fill="#FFD700"/>
<path d="M11.7305 4.74814C11.5252 4.28886 10.8997 4.22411 10.6046 4.63159L7.1191 9.44486C6.82403 9.85233 7.08072 10.4264 7.58113 10.4782L13.4923 11.0901C13.9927 11.1419 14.3616 10.6326 14.1562 10.1733L11.7305 4.74814Z" fill="#FFD700"/>
<path d="M31.0574 10.2512C31.4739 9.96902 32.0397 10.2435 32.0759 10.7453L32.5031 16.6726C32.5393 17.1744 32.0187 17.5272 31.5661 17.3076L26.2192 14.714C25.7665 14.4944 25.7213 13.8672 26.1378 13.585L31.0574 10.2512Z" fill="#FFD700"/>
<circle cx="23.0394" cy="1.50846" r="1.50809" transform="rotate(15.8935 23.0394 1.50846)" fill="#FFD700"/>
</svg>
