<svg width="29" height="40" viewBox="0 0 29 40" fill="none" xmlns="http://www.w3.org/2000/svg">
<rect y="10.8452" width="29" height="29" rx="14.5" fill="#2864D2"/>
<path d="M17.561 18.5752C17.3811 18.5756 17.2356 18.7217 17.236 18.9015L17.2463 23.7303C17.2468 23.9922 16.9498 24.1525 16.7156 24.0352C16.4385 23.8965 16.1433 23.7836 15.8321 23.7009C14.7433 23.4116 13.6415 23.5358 12.6943 23.9772C12.4994 24.068 12.2614 23.9701 12.2062 23.7624L10.5418 17.5051C10.4772 17.2623 10.1737 17.181 9.99638 17.359L3.96562 23.4149C3.78833 23.5929 3.8709 23.8961 4.11396 23.9597L10.3103 25.58C10.5236 25.6358 10.621 25.8835 10.5213 26.0802C10.3785 26.3622 10.2624 26.6631 10.178 26.9809C9.5225 29.4478 10.9911 31.9794 13.458 32.635C15.9248 33.2903 18.4556 31.8215 19.1111 29.3547C19.3883 28.3115 19.2865 27.2565 18.8895 26.337C18.7899 26.1063 18.9491 25.831 19.2004 25.8305L24.1839 25.8204C24.3638 25.8201 24.5093 25.674 24.5089 25.4941L24.4951 18.8863C24.4947 18.7065 24.3486 18.561 24.1688 18.5614L17.561 18.5752Z" fill="#FFD700"/>
<path d="M20.3744 4.59196C20.8574 4.12387 21.6659 4.35409 21.8298 5.00635L23.7661 12.7112C23.93 13.3634 23.3263 13.9485 22.6795 13.7643L15.0388 11.5888C14.392 11.4046 14.1871 10.5893 14.67 10.1212L20.3744 4.59196Z" fill="#FFD700"/>
<circle cx="22.0394" cy="1.50846" r="1.50809" transform="rotate(15.8935 22.0394 1.50846)" fill="#FFD700"/>
</svg>
