<svg width="67" height="73" viewBox="0 0 67 73" fill="none" xmlns="http://www.w3.org/2000/svg">
<path fill-rule="evenodd" clip-rule="evenodd" d="M22.3687 59.5543C22.3687 52.258 28.2836 46.3431 35.58 46.3431C42.8763 46.3431 48.7912 52.258 48.7912 59.5543C48.7912 66.8507 42.8763 72.7656 35.58 72.7656C28.2836 72.7656 22.3687 66.8507 22.3687 59.5543ZM16.1374 25.2987C14.1848 23.3461 11.019 23.3461 9.06637 25.2987L1.46447 32.9006C-0.488148 34.8532 -0.488149 38.0191 1.46447 39.9717L9.06636 47.5736C11.019 49.5262 14.1848 49.5262 16.1374 47.5736L23.7393 39.9717C25.6919 38.0191 25.6919 34.8532 23.7393 32.9006L16.1374 25.2987ZM66.4063 31.3013C66.4063 27.4437 62.2228 25.0392 58.8895 26.9809L50.0749 32.1156C46.7639 34.0443 46.7639 38.8277 50.0749 40.7564L58.8895 45.8911C62.2228 47.8329 66.4063 45.4283 66.4063 41.5707L66.4063 31.3013ZM35.58 -0.000170542C28.2836 -0.000171179 22.3687 5.91472 22.3687 13.2111C22.3687 20.5075 28.2836 26.4224 35.58 26.4224C42.8763 26.4224 48.7912 20.5075 48.7912 13.2111C48.7912 5.91472 42.8763 -0.000169904 35.58 -0.000170542Z" fill="#FF9152"/>
</svg>
