<svg width="29" height="35" viewBox="0 0 29 35" fill="none" xmlns="http://www.w3.org/2000/svg">
<rect y="5.24609" width="29" height="29" rx="14.5" fill="#2864D2"/>
<path d="M17.561 12.9761C17.3811 12.9765 17.2356 13.1226 17.236 13.3024L17.2463 18.1312C17.2468 18.3931 16.9498 18.5534 16.7156 18.4361C16.4385 18.2973 16.1433 18.1845 15.8321 18.1018C14.7433 17.8124 13.6415 17.9367 12.6943 18.3781C12.4994 18.4689 12.2614 18.371 12.2062 18.1632L10.5418 11.906C10.4772 11.6632 10.1737 11.5819 9.99638 11.7599L3.96562 17.8157C3.78833 17.9938 3.8709 18.297 4.11396 18.3605L10.3103 19.9809C10.5236 20.0367 10.621 20.2843 10.5213 20.4811C10.3785 20.7631 10.2624 21.064 10.178 21.3818C9.5225 23.8487 10.9911 26.3803 13.458 27.0358C15.9248 27.6911 18.4556 26.2223 19.1111 23.7556C19.3883 22.7124 19.2865 21.6574 18.8895 20.7379C18.7899 20.5072 18.9491 20.2319 19.2004 20.2314L24.1839 20.2213C24.3638 20.221 24.5093 20.0749 24.5089 19.895L24.4951 13.2872C24.4947 13.1074 24.3486 12.9619 24.1688 12.9623L17.561 12.9761Z" fill="#FFD700"/>
<circle cx="14.9573" cy="3.20383" r="3.20303" transform="rotate(15.8935 14.9573 3.20383)" fill="#FFD700"/>
</svg>
