<svg width="78" height="64" viewBox="0 0 78 64" fill="none" xmlns="http://www.w3.org/2000/svg">
<path d="M9.63431 60.4537V52.9575H12.7646C13.7085 52.9575 14.4447 53.1137 14.9733 53.426C15.5053 53.7349 15.7713 54.2395 15.7713 54.9397C15.7713 55.3516 15.6581 55.6862 15.4315 55.9436C15.2084 56.2011 14.9252 56.383 14.582 56.4894V56.51C15.0042 56.6164 15.3474 56.8189 15.6117 57.1175C15.876 57.4161 16.0082 57.8074 16.0082 58.2914C16.0082 59.0019 15.7267 59.5407 15.1638 59.908C14.6043 60.2718 13.8629 60.4537 12.9396 60.4537H9.63431ZM11.1634 59.352H12.8882C13.4373 59.352 13.8389 59.2559 14.0929 59.0636C14.3469 58.8714 14.4739 58.5883 14.4739 58.2141C14.4739 57.8503 14.3469 57.5723 14.0929 57.3801C13.8389 57.1844 13.4373 57.0866 12.8882 57.0866H11.1634V59.352ZM11.1634 56.0363H12.7183C13.2571 56.0363 13.6467 55.9522 13.887 55.784C14.1272 55.6159 14.2474 55.3687 14.2474 55.0427C14.2474 54.7132 14.1272 54.4677 13.887 54.3064C13.6467 54.1451 13.2571 54.0644 12.7183 54.0644H11.1634V56.0363ZM16.4252 60.4537L19.6533 52.9215H21.1669L24.4208 60.4537H22.7527L20.6933 55.3722C20.6281 55.204 20.568 55.0375 20.5131 54.8728C20.4582 54.708 20.4136 54.5536 20.3792 54.4094H20.3174C20.2831 54.5604 20.2402 54.7183 20.1887 54.8831C20.1372 55.0444 20.0772 55.2074 20.0085 55.3722L17.9079 60.4537H16.4252ZM17.9749 58.7856L18.3868 57.6272H22.3563L22.7733 58.7856H17.9749ZM25.3166 60.4537V52.9575H26.8663V60.4537H25.3166ZM29.0674 57.3116C28.8847 57.3116 28.7265 57.2448 28.5929 57.1112C28.4594 56.9777 28.3926 56.8195 28.3926 56.6368C28.3926 56.454 28.4594 56.2958 28.5929 56.1623C28.7265 56.0287 28.8847 55.9619 29.0674 55.9619C29.2502 55.9619 29.4084 56.0287 29.5419 56.1623C29.6755 56.2958 29.7423 56.454 29.7423 56.6368C29.7423 56.8195 29.6755 56.9777 29.5419 57.1112C29.4084 57.2448 29.2502 57.3116 29.0674 57.3116ZM31.2271 60.4537V52.9575H32.7717V59.2696H36.7772V60.4537H31.2271ZM37.8584 60.4537V52.9575H43.6144V54.1417H39.3926V56.0106H43.079V57.1793H39.3926V59.2747H43.6762V60.4537H37.8584ZM43.98 60.4537L47.2081 52.9215H48.7217L51.9756 60.4537H50.3075L48.2481 55.3722C48.1829 55.204 48.1228 55.0375 48.0679 54.8728C48.013 54.708 47.9683 54.5536 47.934 54.4094H47.8722C47.8379 54.5604 47.795 54.7183 47.7435 54.8831C47.692 55.0444 47.632 55.2074 47.5633 55.3722L45.4627 60.4537H43.98ZM45.5297 58.7856L45.9415 57.6272H49.911L50.3281 58.7856H45.5297ZM52.8302 60.4537V52.9575H55.9039C56.8958 52.9575 57.6681 53.16 58.2207 53.565C58.7767 53.9666 59.0548 54.5484 59.0548 55.3104C59.0548 56.0689 58.7767 56.6559 58.2207 57.0712C57.6647 57.4831 56.8907 57.6924 55.8987 57.6993H54.3748V60.4537H52.8302ZM54.3645 56.5563H55.8678C56.4685 56.5563 56.8924 56.4465 57.1395 56.2268C57.3867 56.0037 57.5119 55.7017 57.5154 55.3207C57.5154 54.9363 57.3901 54.6394 57.1395 54.43C56.8924 54.2206 56.4685 54.1159 55.8678 54.1159H54.3645V56.5563ZM57.7573 60.4537L55.6825 57.0197L57.3197 56.9579L59.5027 60.4537H57.7573ZM60.6457 60.4537V52.9575H62.2726L65.6963 57.6735C65.7959 57.8143 65.8937 57.9722 65.9898 58.1472C66.0893 58.3188 66.1597 58.4544 66.2009 58.5539H66.2524C66.2386 58.4407 66.2266 58.3051 66.2163 58.1472C66.206 57.9859 66.2009 57.84 66.2009 57.7096V52.9575H67.5755V60.4537H65.9177L62.4631 55.7326C62.3601 55.585 62.2691 55.4357 62.1902 55.2846C62.1147 55.1336 62.0563 55.0083 62.0152 54.9088H61.9585C61.9757 55.0221 61.9877 55.1508 61.9946 55.2949C62.0049 55.4357 62.01 55.5712 62.01 55.7017V60.4537H60.6457Z" fill="#2864D2"/>
<path d="M23.3699 29.5277C23.6256 29.7834 24.0402 29.7834 24.2959 29.5277L31.1627 22.6612C31.5351 22.2889 32.1848 22.4848 32.3498 22.9849C32.5451 23.577 32.803 24.1582 33.127 24.7194C34.2594 26.6807 35.999 28.0734 37.9712 28.7966C38.3769 28.9454 38.5751 29.4233 38.3576 29.7968L31.8046 41.0473C31.5504 41.4838 31.8652 42.0316 32.3704 42.0316L49.5537 42.0312C50.0589 42.0312 50.3738 41.4833 50.1195 41.0469L43.6384 29.9225C43.4151 29.5393 43.6299 29.0491 44.0515 28.9117C44.656 28.7146 45.2493 28.4523 45.8219 28.1217C50.2668 25.5555 51.79 19.8708 49.2238 15.426C46.6574 10.9814 40.9732 9.45881 36.5285 12.025C34.6492 13.1101 33.2923 14.7527 32.546 16.6231C32.3588 17.0924 31.7408 17.2561 31.3836 16.8988L24.2959 9.81112C24.0402 9.55541 23.6256 9.55542 23.3699 9.81114L13.9752 19.2066C13.7196 19.4623 13.7196 19.8768 13.9752 20.1325L23.3699 29.5277Z" fill="#2864D2"/>
</svg>
